<?xml version="1.0" encoding="iso-8859-1"?>
<!-- Generator: Adobe Illustrator 19.0.0, SVG Export Plug-In . SVG Version: 6.00 Build 0)  -->
<svg xmlns="http://www.w3.org/2000/svg" xmlns:xlink="http://www.w3.org/1999/xlink" version="1.1" id="Capa_1" x="0px" y="0px" viewBox="0 0 512 512" style="enable-background:new 0 0 512 512;" xml:space="preserve">
<polygon style="fill:#BA1956;" points="414.5,259 344.5,249 474.5,391.5 504.5,391.5 "/>
<g>
	<path style="fill:#FF0F47;" d="M276.804,179L270,369c0,12.426,10.074,22.5,22.5,22.5h182l-90-132.5L276.804,179z"/>
	<polygon style="fill:#FF0F47;" points="474.5,126.5 384.5,199 384.5,259 414.5,259 504.5,126.5  "/>
</g>
<polygon style="fill:#FF3744;" points="285,126.5 276.804,259 384.5,259 474.5,126.5 "/>
<path style="fill:#BA1956;" d="M270,279v90c0-12.427,10.074-22.5,22.5-22.5S315,336.426,315,324C315,299.147,294.853,279,270,279z"/>
<path style="fill:#FF3744;" d="M22.5,129v172.5h270c12.426,0,22.5,10.073,22.5,22.5V169L22.5,129z"/>
<path style="fill:#FF4F42;" d="M315,59c0-12.427-10.074-22.5-22.5-22.5h-270V169H315V59z"/>
<rect x="7.5" y="7.5" style="fill:#FFA688;" width="30" height="497"/>
<path d="M423.566,259l87.138-128.286c1.561-2.298,1.724-5.27,0.424-7.725c-1.3-2.454-3.851-3.989-6.628-3.989H345  c-4.143,0-7.5,3.357-7.5,7.5s3.357,7.5,7.5,7.5h145.339l-79.811,117.5H322.5V59c0-16.542-13.458-30-30-30H45V7.5  C45,3.357,41.643,0,37.5,0h-30C3.357,0,0,3.357,0,7.5v497c0,4.143,3.357,7.5,7.5,7.5h30c4.143,0,7.5-3.357,7.5-7.5V309h217.5v60  c0,16.542,13.458,30,30,30h212c2.777,0,5.328-1.535,6.628-3.989c1.3-2.455,1.137-5.427-0.424-7.725L423.566,259z M30,497H15V15h15  V497z M45,176.5h240c4.143,0,7.5-3.357,7.5-7.5s-3.357-7.5-7.5-7.5H45V44h247.5c8.271,0,15,6.729,15,15v239.036  c-4.416-2.562-9.538-4.036-15-4.036H45V176.5z M292.5,309c8.271,0,15,6.729,15,15s-6.729,15-15,15c-5.462,0-10.584,1.475-15,4.036  V309H292.5z M292.5,384c-8.271,0-15-6.729-15-15s6.729-15,15-15c16.542,0,30-13.458,30-30c0-0.223-0.012-0.443-0.017-0.665  c0.005-0.112,0.017-0.222,0.017-0.335v-56.5h88.028L490.339,384H292.5z"/>
<g>
</g>
<g>
</g>
<g>
</g>
<g>
</g>
<g>
</g>
<g>
</g>
<g>
</g>
<g>
</g>
<g>
</g>
<g>
</g>
<g>
</g>
<g>
</g>
<g>
</g>
<g>
</g>
<g>
</g>
</svg>
